<?xml version="1.0" encoding="UTF-8"?><!-- Uploaded to: SVG Repo, www.svgrepo.com, Generator: SVG Repo Mixer Tools -->
<svg width="800px" height="800px" viewBox="0 0 48 48" id="b" xmlns="http://www.w3.org/2000/svg"><defs><style>.c{fill:none;stroke:#000000;stroke-linecap:round;stroke-linejoin:round;}</style></defs><path class="c" d="m41.712,30.7619v-13.5239c0-2.1436-1.1436-4.1244-3-5.1962l-11.712-6.7619c-1.8564-1.0718-4.1436-1.0718-6,0l-11.712,6.7619c-1.8564,1.0718-3,3.0526-3,5.1962v13.5239c0,2.1436,1.1436,4.1244,3,5.1962l11.712,6.7619c1.8564,1.0718,4.1436,1.0718,6,0l11.712-6.7619c1.8564-1.0718,3-3.0526,3-5.1962Z"/><line class="c" x1="24" y1="24" x2="24" y2="11.6168"/><line class="c" x1="24" y1="24" x2="13.2759" y2="30.1916"/><line class="c" x1="24" y1="24" x2="34.7241" y2="30.1916"/></svg>