<?xml version="1.0" encoding="UTF-8"?>
<!-- Uploaded to: SVG Repo, www.svgrepo.com, Generator: SVG Repo Mixer Tools -->
<svg width="800px" height="800px" viewBox="0 0 32 32" version="1.1" xmlns="http://www.w3.org/2000/svg" xmlns:xlink="http://www.w3.org/1999/xlink">
    
    <title>betting</title>
    <desc>Created with Sketch.</desc>
    <g id="icons" stroke="none" stroke-width="1" fill="none" fill-rule="evenodd">
        <g id="ui-gambling-website-lined-icnos-casinoshunter" transform="translate(-1254.000000, -414.000000)" fill="#252528" fill-rule="nonzero">
            <g id="square-filled" transform="translate(50.000000, 120.000000)">
                <path d="M1213.92669,294 C1219.41872,294 1223.83253,296.553774 1223.84988,299.857313 L1223.85898,299.866983 L1223.85875,305.112434 C1224.39628,305.028404 1224.94251,304.985884 1225.49409,304.985884 C1231.29634,304.985884 1236,309.690054 1236,315.492942 C1236,321.29583 1231.29634,326 1225.49409,326 C1223.64745,326 1221.87026,325.522771 1220.30144,324.628945 C1218.53485,325.504026 1216.29935,325.989341 1213.93596,325.989341 C1208.5375,325.989341 1204.16194,323.482602 1204.01654,320.205699 L1204.01293,320.019175 L1204.02043,318.193926 L1204.01644,317.292576 L1204.0133,317.146613 C1203.99485,317.114017 1203.99682,317.08147 1204.01189,317.074103 L1204.02043,315.302904 L1204.01644,314.401643 L1204.0133,314.255591 C1203.99485,314.222995 1203.99682,314.190448 1204.01189,314.183081 L1204.02043,312.411882 L1204.01644,311.510711 L1204.01329,311.36454 C1203.99493,311.332057 1203.9968,311.299632 1204.01178,311.292235 L1204.02043,309.52086 L1204.01644,308.619778 L1204.01329,308.473518 C1203.99493,308.441035 1203.9968,308.408609 1204.01178,308.401213 L1204.02043,306.629838 L1204.01644,305.728845 L1204.01329,305.582495 C1203.99493,305.550013 1203.9968,305.517587 1204.01178,305.510191 L1204.02043,303.738822 L1204.01644,302.849821 L1204.01306,302.691194 C1203.9946,302.658324 1203.99697,302.625581 1204.01229,302.618342 L1204.02043,300.858638 L1204.01651,300.189194 C1204.00837,300.092197 1204.00403,299.994754 1204.00351,299.894944 L1204.00352,299.756975 L1204.00719,299.709865 C1204.15242,296.473241 1208.52618,294 1213.92669,294 Z M1205.37237,320.191783 L1205.38758,320.348193 C1205.69216,322.685887 1209.41579,324.631806 1213.93596,324.631806 C1215.63279,324.631806 1217.2518,324.360037 1218.63554,323.862709 L1218.97649,323.733704 L1218.64844,323.463447 C1218.34901,323.205984 1218.06415,322.931841 1217.7953,322.642407 C1216.58524,322.942069 1215.27854,323.098319 1213.93596,323.098319 C1210.48268,323.098319 1207.35098,322.059513 1205.55917,320.374748 L1205.37237,320.191783 Z M1229.45781,319.837723 C1228.62024,320.602501 1227.581,321.11095 1226.45528,321.296157 L1226.17211,321.335687 L1226.17152,324.620138 C1228.1686,324.473939 1230.03261,323.681729 1231.51477,322.385239 L1231.77231,322.151241 L1229.45781,319.837723 Z M1221.69479,319.982348 L1219.37744,322.300078 C1220.78809,323.568873 1222.55495,324.372082 1224.45757,324.586755 L1224.81585,324.62008 L1224.81605,321.335684 C1223.75296,321.213574 1222.75612,320.805194 1221.91905,320.163192 L1221.69479,319.982348 Z M1220.28337,324.503946 L1220.30358,324.515627 L1220.22,324.555 L1220.20884,324.575561 L1220.25486,324.602248 L1220.3047,324.516276 C1220.29656,324.51158 1220.28996,324.507767 1220.28337,324.503946 Z M1217.792,322.491 L1217.82816,322.531527 L1217.717,322.557 L1217.75494,322.598715 L1217.82834,322.53172 L1217.827,322.529 L1217.792,322.491 Z M1217.22,321.806 L1217.23095,321.820372 L1217.246,321.84 L1217.22,321.806 Z M1217.21,321.793 L1217.218,321.804 L1217.219,321.804 L1217.21,321.793 Z M1217.074,321.609 L1217.16294,321.730576 L1217.16294,321.730576 L1217.189,321.765 L1217.074,321.609 Z M1205.37354,317.30196 L1205.38422,317.428682 C1205.66655,319.793514 1209.41934,321.740784 1213.93596,321.740784 C1214.77413,321.740784 1215.59483,321.674649 1216.38065,321.546398 L1216.84782,321.462026 L1216.8011,321.395067 C1216.64022,321.158525 1216.48907,320.915552 1216.34779,320.66622 L1216.14329,320.287461 L1216.04003,320.076223 L1215.5222,320.133373 C1215.00126,320.182461 1214.47137,320.207297 1213.93596,320.207297 C1210.48345,320.207297 1207.35238,319.168954 1205.56037,317.484853 L1205.37354,317.30196 Z M1219.65193,316.170523 L1216.36789,316.170433 C1216.49882,317.959586 1217.14785,319.643928 1218.219,321.045238 L1218.43883,321.321674 L1220.76787,318.993432 C1220.21824,318.252432 1219.84979,317.393257 1219.69541,316.477709 L1219.65193,316.170523 Z M1234.62029,316.170395 L1231.33627,316.170395 C1231.23889,317.019358 1230.959,317.827275 1230.52092,318.546901 L1230.34927,318.81253 L1232.68716,321.150916 C1233.73802,319.81663 1234.39965,318.218045 1234.58879,316.512844 L1234.62029,316.170395 Z M1225.49409,310.966685 C1222.99458,310.966685 1220.96833,312.993159 1220.96833,315.492942 C1220.96833,317.992724 1222.99458,320.019198 1225.49409,320.019198 C1227.9936,320.019198 1230.01985,317.992724 1230.01985,315.492942 C1230.01985,312.993159 1227.9936,310.966685 1225.49409,310.966685 Z M1205.37354,314.410938 L1205.38422,314.53766 C1205.66655,316.902492 1209.41934,318.849762 1213.93596,318.849762 C1214.29099,318.849762 1214.64308,318.8379 1214.99099,318.814423 L1215.50958,318.770526 L1215.38646,318.368319 L1215.28156,317.968752 L1215.19223,317.563836 L1215.13922,317.271347 L1214.80333,317.294023 C1214.51793,317.308859 1214.22854,317.316275 1213.93596,317.316275 C1210.48345,317.316275 1207.35238,316.277932 1205.56037,314.593831 L1205.37354,314.410938 Z M1225.48125,312.502541 C1225.72387,312.502541 1225.93188,312.674247 1225.98165,312.919239 L1225.99049,313.011712 L1225.99049,313.121493 C1226.16818,313.13713 1226.33494,313.165276 1226.48792,313.205515 C1226.7548,313.2762 1226.93273,313.528315 1226.91207,313.809785 L1226.89024,313.927086 C1226.85343,314.070205 1226.75875,314.193244 1226.6297,314.26573 C1226.50131,314.337436 1226.34554,314.353957 1226.20546,314.310763 C1226.01805,314.253464 1225.82886,314.225606 1225.6264,314.225606 C1225.3367,314.225606 1225.20267,314.306424 1225.20267,314.441645 C1225.20267,314.543397 1225.34768,314.650362 1225.78066,314.822023 L1226.08826,314.939178 C1226.8465,315.244762 1227.18537,315.672125 1227.18537,316.327639 C1227.18537,316.992521 1226.73889,317.526398 1226.02568,317.726455 L1225.95559,317.743335 L1225.95559,317.972089 C1225.95559,318.253086 1225.72735,318.481377 1225.44639,318.481377 C1225.20391,318.481377 1224.99594,318.309692 1224.94618,318.06475 L1224.93733,317.972275 L1224.93733,317.813341 C1224.69869,317.790846 1224.45783,317.742725 1224.24397,317.674244 C1223.98525,317.591191 1223.81864,317.340802 1223.84067,317.064182 L1223.85614,316.973426 L1223.86995,316.918867 C1223.907,316.774712 1224.00367,316.651999 1224.13537,316.58215 C1224.26591,316.51298 1224.42378,316.501667 1224.56281,316.551516 C1224.80603,316.638401 1225.04981,316.682331 1225.28786,316.682331 C1225.6108,316.682331 1225.78045,316.579981 1225.78045,316.424526 C1225.78045,316.280711 1225.64988,316.164476 1225.29195,316.030529 L1224.99321,315.924374 C1224.22114,315.633546 1223.80483,315.238288 1223.80483,314.559159 C1223.80483,313.92172 1224.22069,313.417135 1224.90572,313.212247 L1224.97204,313.194947 L1224.97204,313.011712 C1224.97204,312.730865 1225.20034,312.502541 1225.48125,312.502541 Z M1215.106,316.114 L1215.11263,316.220723 L1215.11263,316.220723 L1215.12,316.324 L1215.106,316.114 Z M1205.37354,311.519916 L1205.38422,311.646638 C1205.66655,314.01147 1209.41934,315.95874 1213.93596,315.95874 C1214.17407,315.95874 1214.4109,315.953404 1214.64608,315.942801 L1214.99756,315.922955 L1214.99196,315.777378 L1214.98818,315.492942 C1214.98818,315.291617 1214.99384,315.090975 1215.00518,314.890599 L1215.02644,314.590183 L1215.04759,314.388009 L1214.68256,314.408709 C1214.43724,314.419744 1214.18813,314.425253 1213.93596,314.425253 C1210.48345,314.425253 1207.35238,313.38691 1205.56037,311.702809 L1205.37354,311.519916 Z M1218.43962,309.663245 C1217.31234,311.025986 1216.60081,312.683743 1216.40105,314.458246 L1216.36795,314.81465 L1219.65191,314.815473 C1219.75828,313.888242 1220.08235,313.010506 1220.59121,312.244051 L1220.76764,311.992772 L1218.43962,309.663245 Z M1232.44484,309.540064 L1230.12274,311.864579 C1230.72867,312.636609 1231.13293,313.546993 1231.29496,314.521233 L1231.33625,314.815346 L1234.62023,314.814646 C1234.48481,312.966386 1233.79643,311.230558 1232.66262,309.803893 L1232.44484,309.540064 Z M1215.31772,313.309686 L1215.307,313.36 L1215.32,313.301 L1215.31953,313.301366 L1215.31772,313.309686 Z M1215.341,313.203 L1215.319,313.298 L1215.32,313.299 L1215.341,313.203 Z M1205.37354,308.628894 L1205.38422,308.755616 C1205.66655,311.120448 1209.41934,313.067718 1213.93596,313.067718 C1214.23911,313.067718 1214.54016,313.059069 1214.83833,313.041918 L1215.28334,313.009834 L1215.37796,312.647681 C1215.44498,312.408863 1215.52047,312.172688 1215.60431,311.939343 L1215.73633,311.591471 L1215.80473,311.427958 L1215.47584,311.464006 C1214.97153,311.510704 1214.45707,311.534231 1213.93596,311.534231 C1210.48345,311.534231 1207.35238,310.495888 1205.56037,308.811787 L1205.37354,308.628894 Z M1224.81587,306.365803 L1224.45759,306.399127 C1222.67387,306.600381 1221.00949,307.318905 1219.64606,308.453392 L1219.37744,308.685806 L1221.69522,311.00396 C1222.50112,310.319892 1223.47714,309.864291 1224.52814,309.690508 L1224.81657,309.65014 L1224.81587,306.365803 Z M1226.17147,306.365744 L1226.17147,309.650123 C1227.17582,309.765368 1228.12151,310.136103 1228.9298,310.719079 L1229.16809,310.900296 L1231.49007,308.57918 C1230.09628,307.368978 1228.37202,306.604736 1226.52017,306.397955 L1226.17147,306.365744 Z M1205.37453,305.749533 L1205.38422,305.864594 C1205.66655,308.229426 1209.41934,310.176696 1213.93596,310.176696 C1214.70296,310.176696 1215.45558,310.121323 1216.14206,310.039765 L1216.54559,309.987921 L1216.65457,309.812211 C1217.03964,309.214127 1217.48447,308.656518 1217.98141,308.148176 C1216.72385,308.480141 1215.35145,308.653868 1213.93596,308.653868 C1210.4841,308.653868 1207.35355,307.615912 1205.56138,305.932365 L1205.37453,305.749533 Z M1218.34009,307.934542 L1218.32409,307.949729 L1218.124,308.004 L1218.05304,308.075602 C1218.02904,308.09968 1218.00517,308.123872 1217.98141,308.148176 L1218.177,308.092387 C1218.23079,308.039186 1218.28516,307.986568 1218.34009,307.934542 Z M1222.49693,302.890264 L1222.31012,303.072462 C1220.51811,304.750233 1217.37999,305.786532 1213.92669,305.786532 C1210.36429,305.786532 1207.1366,304.683706 1205.37657,302.91061 C1205.58607,305.300741 1209.36134,307.296333 1213.93596,307.296333 C1218.42476,307.296333 1222.14264,305.375193 1222.47951,303.046123 L1222.49693,302.890264 Z M1220.15613,306.556863 L1220.13634,306.568746 L1220.15575,306.55713 L1220.15613,306.556863 Z M1220.51407,306.352007 C1220.49854,306.360493 1220.48303,306.369017 1220.46755,306.377579 L1220.46755,306.377579 Z M1221.22442,305.998774 L1221.22396,305.99862 L1221.195,306.011 L1221.22442,305.998774 Z M1221.491,305.882 L1221.45724,305.896809 L1221.45724,305.896809 L1221.439,305.904 L1221.491,305.882 Z M1221.96085,305.699584 C1221.92903,305.7111 1221.89729,305.722765 1221.86561,305.734578 L1221.868,305.733 L1221.96111,305.700388 Z M1222.54,305.509 L1222.35982,305.564264 L1222.35982,305.564264 L1222.181,305.623 L1222.38774,305.55671 C1222.43878,305.540837 1222.48998,305.525313 1222.54132,305.51016 L1222.54,305.509 Z M1222.577,305.497 L1222.542,305.508 C1222.55499,305.506128 1222.56667,305.502705 1222.57836,305.499302 L1222.577,305.497 Z M1222.602,305.489 L1222.596,305.491 C1222.59874,305.49339 1222.60107,305.492714 1222.60341,305.492039 L1222.602,305.489 Z M1223.00212,305.38556 C1222.99583,305.387107 1222.98953,305.38866 1222.98324,305.390219 L1222.98324,305.390219 Z M1223.459,305.284 L1223.41866,305.292263 L1223.34624,305.30719 L1223.34624,305.30719 L1223.459,305.284 Z M1223.695,305.24 L1223.68469,305.242026 L1223.55182,305.266218 L1223.55182,305.266218 L1223.459,305.284 L1223.703,305.239 L1223.695,305.24 Z M1213.92669,295.357535 C1209.38449,295.357535 1205.6302,297.297776 1205.3713,299.606584 L1205.3594,299.757664 L1205.36802,299.824197 L1205.37272,299.958133 L1205.36094,299.96534 L1205.36136,299.98144 L1205.3731,299.984977 L1205.37145,300.12619 C1205.62647,302.476191 1209.40044,304.428997 1213.92669,304.428997 C1218.62366,304.428997 1222.48221,302.330094 1222.49544,299.889621 C1222.50842,297.454074 1218.65065,295.357535 1213.92669,295.357535 Z" id="betting">
</path>
            </g>
        </g>
    </g>
</svg>